<svg width="25" height="17" viewBox="0 0 25 17" fill="none" xmlns="http://www.w3.org/2000/svg">
<path fill-rule="evenodd" clip-rule="evenodd" d="M0.700094 8.13022C0.700094 8.35473 0.786104 8.57006 0.939205 8.72882C1.09231 8.88758 1.29996 8.97677 1.51647 8.97677L20.7716 8.97677L15.6333 14.3033C15.5574 14.382 15.4972 14.4754 15.4561 14.5783C15.415 14.6811 15.3939 14.7913 15.3939 14.9026C15.3939 15.0139 15.415 15.1242 15.4561 15.227C15.4972 15.3298 15.5574 15.4233 15.6333 15.502C15.7092 15.5807 15.7993 15.6431 15.8985 15.6857C15.9977 15.7283 16.104 15.7502 16.2113 15.7502C16.3186 15.7502 16.4249 15.7283 16.5241 15.6857C16.6233 15.6431 16.7134 15.5807 16.7893 15.502L23.3203 8.72957C23.3964 8.65094 23.4567 8.55752 23.4978 8.45467C23.539 8.35182 23.5602 8.24157 23.5602 8.13022C23.5602 8.01886 23.539 7.90861 23.4978 7.80576C23.4567 7.70291 23.3964 7.60949 23.3203 7.53086L16.7893 0.758448C16.7134 0.679739 16.6233 0.617304 16.5241 0.574707C16.4249 0.53211 16.3186 0.510186 16.2113 0.510186C16.104 0.510186 15.9977 0.53211 15.8985 0.574707C15.7993 0.617304 15.7092 0.679739 15.6333 0.758448C15.5574 0.837156 15.4972 0.930597 15.4561 1.03344C15.415 1.13627 15.3939 1.2465 15.3939 1.35781C15.3939 1.46912 15.415 1.57934 15.4561 1.68218C15.4972 1.78502 15.5574 1.87846 15.6333 1.95716L20.7716 7.28366L1.51647 7.28366C1.29996 7.28366 1.09231 7.37285 0.939205 7.53161C0.786104 7.69037 0.700094 7.9057 0.700094 8.13022Z" fill="#E4B717" stroke="#E4B717"/>
</svg>
