<svg width="22" height="21" viewBox="0 0 22 21" fill="none" xmlns="http://www.w3.org/2000/svg">
<path d="M1 1L3.19529 1.37995L4.21167 13.4889C4.29293 14.4778 5.11933 15.2367 6.11143 15.2335H17.6251C18.5718 15.2356 19.375 14.539 19.509 13.6018L20.5106 6.68031C20.6225 5.90668 20.0853 5.18899 19.3127 5.07712C19.2452 5.06762 3.5478 5.06234 3.5478 5.06234" stroke="#363636" stroke-width="1.5" stroke-linecap="round" stroke-linejoin="round"/>
<path d="M13.0055 8.96309H15.9322" stroke="#363636" stroke-width="1.5" stroke-linecap="round" stroke-linejoin="round"/>
<path fill-rule="evenodd" clip-rule="evenodd" d="M5.64837 18.8922C5.96606 18.8922 6.22252 19.1498 6.22252 19.4664C6.22252 19.7841 5.96606 20.0416 5.64837 20.0416C5.33069 20.0416 5.07422 19.7841 5.07422 19.4664C5.07422 19.1498 5.33069 18.8922 5.64837 18.8922Z" fill="#363636" stroke="#363636" stroke-width="1.5" stroke-linecap="round" stroke-linejoin="round"/>
<path fill-rule="evenodd" clip-rule="evenodd" d="M17.5539 18.8922C17.8716 18.8922 18.1291 19.1498 18.1291 19.4664C18.1291 19.7841 17.8716 20.0416 17.5539 20.0416C17.2362 20.0416 16.9797 19.7841 16.9797 19.4664C16.9797 19.1498 17.2362 18.8922 17.5539 18.8922Z" fill="#363636" stroke="#363636" stroke-width="1.5" stroke-linecap="round" stroke-linejoin="round"/>
</svg>
