<svg width="24" height="24" viewBox="0 0 24 24" fill="none" xmlns="http://www.w3.org/2000/svg">
<path d="M1.76758 1.83716L4.11603 2.24362L5.20331 15.1973C5.29025 16.2553 6.17431 17.0671 7.23563 17.0637H19.5526C20.5653 17.0659 21.4245 16.3208 21.5679 15.3182L22.6394 7.91377C22.7591 7.08617 22.1844 6.3184 21.3579 6.19872C21.2857 6.18856 4.49313 6.18292 4.49313 6.18292" stroke="white" stroke-width="2" stroke-linecap="round" stroke-linejoin="round"/>
<path d="M14.6106 10.3558H17.7415" stroke="white" stroke-width="2" stroke-linecap="round" stroke-linejoin="round"/>
<path fill-rule="evenodd" clip-rule="evenodd" d="M6.74019 20.9777C7.08003 20.9777 7.3544 21.2532 7.3544 21.5919C7.3544 21.9317 7.08003 22.2072 6.74019 22.2072C6.40034 22.2072 6.12598 21.9317 6.12598 21.5919C6.12598 21.2532 6.40034 20.9777 6.74019 20.9777Z" fill="white" stroke="white" stroke-width="2" stroke-linecap="round" stroke-linejoin="round"/>
<path fill-rule="evenodd" clip-rule="evenodd" d="M19.4765 20.9777C19.8164 20.9777 20.0919 21.2532 20.0919 21.5919C20.0919 21.9317 19.8164 22.2072 19.4765 22.2072C19.1367 22.2072 18.8623 21.9317 18.8623 21.5919C18.8623 21.2532 19.1367 20.9777 19.4765 20.9777Z" fill="white" stroke="white" stroke-width="2" stroke-linecap="round" stroke-linejoin="round"/>
</svg>
