<svg width="23" height="23" viewBox="0 0 23 23" fill="none" xmlns="http://www.w3.org/2000/svg">
<path d="M2 2L4.19529 2.37995L5.21167 14.4889C5.29293 15.4778 6.11933 16.2367 7.11143 16.2335H18.6251C19.5718 16.2356 20.375 15.539 20.509 14.6018L21.5106 7.68031C21.6225 6.90668 21.0853 6.18899 20.3127 6.07712C20.2452 6.06762 4.5478 6.06234 4.5478 6.06234" stroke="#E4B717" stroke-width="2.5" stroke-linecap="round" stroke-linejoin="round"/>
<path d="M14.0059 9.96309H16.9326" stroke="#E4B717" stroke-width="2.5" stroke-linecap="round" stroke-linejoin="round"/>
<path fill-rule="evenodd" clip-rule="evenodd" d="M6.64837 19.8922C6.96606 19.8922 7.22252 20.1498 7.22252 20.4664C7.22252 20.7841 6.96606 21.0416 6.64837 21.0416C6.33069 21.0416 6.07422 20.7841 6.07422 20.4664C6.07422 20.1498 6.33069 19.8922 6.64837 19.8922Z" fill="#E4B717" stroke="#E4B717" stroke-width="2.5" stroke-linecap="round" stroke-linejoin="round"/>
<path fill-rule="evenodd" clip-rule="evenodd" d="M18.5536 19.8922C18.8713 19.8922 19.1289 20.1498 19.1289 20.4664C19.1289 20.7841 18.8713 21.0416 18.5536 21.0416C18.236 21.0416 17.9795 20.7841 17.9795 20.4664C17.9795 20.1498 18.236 19.8922 18.5536 19.8922Z" fill="#E4B717" stroke="#E4B717" stroke-width="2.5" stroke-linecap="round" stroke-linejoin="round"/>
</svg>
