<svg width="55" height="51" viewBox="0 0 55 51" fill="none" xmlns="http://www.w3.org/2000/svg">
<path d="M51.4894 24.1423H3.20474C2.29128 24.1423 1.5 23.3928 1.5 22.4375C1.5 21.418 2.35557 20.626 3.20474 20.626H51.4894C52.3081 20.626 53.1942 21.4932 53.1942 22.4375C53.1942 23.3183 52.3702 24.1423 51.4894 24.1423Z" stroke="white" stroke-width="3"/>
<path d="M8.81318 47.8708L4.174 28.6376H12.8531C12.8278 28.7743 12.8146 28.9156 12.8146 29.0604V46.1524C12.8146 47.4081 13.8066 48.4001 15.0624 48.4001C16.3181 48.4001 17.3101 47.4081 17.3101 46.1524V29.0604C17.3101 28.9156 17.2969 28.7743 17.2717 28.6376H18.9421C18.9168 28.7743 18.9036 28.9156 18.9036 29.0604V46.1524C18.9036 47.4081 19.8956 48.4001 21.1514 48.4001C22.4071 48.4001 23.3991 47.4081 23.3991 46.1524V29.0604C23.3991 28.9156 23.3859 28.7743 23.3607 28.6376H25.1379C25.1126 28.7743 25.0994 28.9156 25.0994 29.0604V46.1524C25.0994 47.4081 26.0915 48.4001 27.3472 48.4001C28.6029 48.4001 29.5949 47.4081 29.5949 46.1524V29.0604C29.5949 28.9156 29.5818 28.7743 29.5565 28.6376H31.2269C31.2016 28.7743 31.1884 28.9156 31.1884 29.0604V46.1524C31.1884 47.4081 32.1805 48.4001 33.4362 48.4001C34.6919 48.4001 35.6839 47.4081 35.6839 46.1524V29.0604C35.6839 28.9156 35.6708 28.7743 35.6455 28.6376H37.4227C37.3974 28.7743 37.3842 28.9156 37.3842 29.0604V46.1524C37.3842 47.4081 38.3763 48.4001 39.632 48.4001C40.8877 48.4001 41.8798 47.4081 41.8798 46.1524V29.0604C41.8798 28.9156 41.8666 28.7743 41.8413 28.6376H50.5105L45.76 47.9302L45.7574 47.9409L45.755 47.9516C45.5513 48.8342 44.9648 49.139 44.6528 49.139H10.0416C9.7961 49.139 9.61085 49.0698 9.43936 48.9236C9.25373 48.7652 9.01584 48.4544 8.81318 47.8708Z" stroke="white" stroke-width="3"/>
<mask id="path-3-inside-1_5_744" fill="white">
<path fill-rule="evenodd" clip-rule="evenodd" d="M48.8189 50.6391H5.87546C5.44816 50.6391 5.12769 50.3186 5.12769 49.8913C5.12769 49.464 5.44816 49.1436 5.87546 49.1436H48.8189C49.2462 49.1436 49.5667 49.464 49.5667 49.8913C49.5667 50.3186 49.2462 50.6391 48.8189 50.6391Z"/>
</mask>
<path d="M48.8189 47.6391H5.87546V53.6391H48.8189V47.6391ZM5.87546 47.6391C6.43207 47.6391 7.01587 47.8573 7.46265 48.3041C7.90944 48.7509 8.12769 49.3347 8.12769 49.8913H2.12769C2.12769 51.9755 3.79131 53.6391 5.87546 53.6391V47.6391ZM8.12769 49.8913C8.12769 50.4479 7.90944 51.0317 7.46265 51.4785C7.01587 51.9253 6.43207 52.1436 5.87546 52.1436V46.1436C3.79131 46.1436 2.12769 47.8072 2.12769 49.8913H8.12769ZM5.87546 52.1436H48.8189V46.1436H5.87546V52.1436ZM48.8189 52.1436C48.2623 52.1436 47.6785 51.9253 47.2317 51.4785C46.7849 51.0317 46.5667 50.4479 46.5667 49.8913H52.5667C52.5667 47.8072 50.9031 46.1436 48.8189 46.1436V52.1436ZM46.5667 49.8913C46.5667 49.3347 46.7849 48.7509 47.2317 48.3041C47.6785 47.8573 48.2623 47.6391 48.8189 47.6391V53.6391C50.9031 53.6391 52.5667 51.9755 52.5667 49.8913H46.5667Z" fill="white" mask="url(#path-3-inside-1_5_744)"/>
<path d="M6.73438 16.1302V4.17028C6.73438 2.88805 7.85275 1.71777 9.29371 1.71777C10.6018 1.71777 11.7462 2.86222 11.7462 4.17028V16.1302H6.73438Z" stroke="white" stroke-width="3"/>
<path d="M47.7017 6.26264L38.3545 10.4969V9.39912L47.3626 5.20117C47.5014 5.54944 47.6163 5.90166 47.7017 6.26264ZM43.1571 1.71777C43.396 1.71777 43.6426 1.7467 43.8937 1.80657L39.6696 3.73884C39.7075 3.67538 39.7461 3.6123 39.7853 3.54958C40.8321 2.26988 42.0128 1.71777 43.1571 1.71777ZM38.3545 15.5949L47.9598 11.1178V11.539L38.3545 15.93V15.5949Z" stroke="white" stroke-width="3"/>
<path d="M27.7164 9.23743L20.4401 13.5438C20.4337 13.307 20.4565 13.0696 20.4927 12.7731C20.7119 11.8499 20.7885 10.7865 20.3808 9.24219L24.2996 6.96218C25.3563 8.02348 26.2921 8.48088 26.983 8.81853C27.0489 8.85072 27.1125 8.88183 27.1738 8.91227C27.3738 9.0267 27.5528 9.13065 27.7164 9.23743Z" stroke="white" stroke-width="3"/>
<path d="M17.2405 4.7465L17.2134 4.69567L17.1824 4.64707C16.9659 4.30679 17.007 3.77587 17.3279 3.40675L17.6501 3.21341L20.2639 1.64514C20.6204 1.47887 20.9332 1.47714 21.1043 1.53418L21.2159 1.5714L21.3301 1.59041C21.3301 1.59041 21.3301 1.59042 21.3301 1.59042C21.3309 1.59082 21.3836 1.60434 21.4804 1.68582C21.5873 1.77585 21.6982 1.90847 21.7879 2.05797L22.336 2.97147L17.7051 5.61772L17.2405 4.7465Z" stroke="white" stroke-width="3"/>
</svg>
