<svg width="22" height="22" viewBox="0 0 22 22" fill="none" xmlns="http://www.w3.org/2000/svg">
<path d="M2.29701 4.2338C2.52243 3.27279 3.27279 2.52243 4.2338 2.29701V2.29701C5.06663 2.10165 5.93337 2.10165 6.7662 2.29701V2.29701C7.72721 2.52243 8.47757 3.27279 8.70299 4.2338V4.2338C8.89835 5.06663 8.89835 5.93337 8.70299 6.7662V6.7662C8.47757 7.72721 7.72721 8.47757 6.7662 8.70299V8.70299C5.93337 8.89835 5.06663 8.89835 4.2338 8.70299V8.70299C3.27279 8.47757 2.52243 7.72721 2.29701 6.7662V6.7662C2.10166 5.93337 2.10166 5.06663 2.29701 4.2338V4.2338Z" stroke="#E4B717" stroke-width="2.5"/>
<path d="M2.29701 15.2338C2.52243 14.2728 3.27279 13.5224 4.2338 13.297V13.297C5.06663 13.1017 5.93337 13.1017 6.7662 13.297V13.297C7.72721 13.5224 8.47757 14.2728 8.70299 15.2338V15.2338C8.89835 16.0666 8.89835 16.9334 8.70299 17.7662V17.7662C8.47757 18.7272 7.72721 19.4776 6.7662 19.703V19.703C5.93337 19.8983 5.06663 19.8983 4.2338 19.703V19.703C3.27279 19.4776 2.52243 18.7272 2.29701 17.7662V17.7662C2.10166 16.9334 2.10166 16.0666 2.29701 15.2338V15.2338Z" stroke="#E4B717" stroke-width="2.5"/>
<path d="M13.297 4.2338C13.5224 3.27279 14.2728 2.52243 15.2338 2.29701V2.29701C16.0666 2.10165 16.9334 2.10165 17.7662 2.29701V2.29701C18.7272 2.52243 19.4776 3.27279 19.703 4.2338V4.2338C19.8983 5.06663 19.8983 5.93337 19.703 6.7662V6.7662C19.4776 7.72721 18.7272 8.47757 17.7662 8.70299V8.70299C16.9334 8.89835 16.0666 8.89835 15.2338 8.70299V8.70299C14.2728 8.47757 13.5224 7.72721 13.297 6.7662V6.7662C13.1017 5.93337 13.1017 5.06663 13.297 4.2338V4.2338Z" stroke="#E4B717" stroke-width="2.5"/>
<path d="M13.297 15.2338C13.5224 14.2728 14.2728 13.5224 15.2338 13.297V13.297C16.0666 13.1017 16.9334 13.1017 17.7662 13.297V13.297C18.7272 13.5224 19.4776 14.2728 19.703 15.2338V15.2338C19.8983 16.0666 19.8983 16.9334 19.703 17.7662V17.7662C19.4776 18.7272 18.7272 19.4776 17.7662 19.703V19.703C16.9334 19.8983 16.0666 19.8983 15.2338 19.703V19.703C14.2728 19.4776 13.5224 18.7272 13.297 17.7662V17.7662C13.1017 16.9334 13.1017 16.0666 13.297 15.2338V15.2338Z" stroke="#E4B717" stroke-width="2.5"/>
</svg>
