<svg width="49" height="44" viewBox="0 0 49 44" fill="none" xmlns="http://www.w3.org/2000/svg">
<path d="M18.1415 31.6448C25.6822 31.2257 31.6675 24.9791 31.6675 17.3337C31.6675 9.41743 25.25 3 17.3337 3C9.41743 3 3 9.41743 3 17.3337C3 20.1544 3.81449 22.7846 5.22147 25.0023L4.20848 28.041L4.20685 28.0456C3.81889 29.2095 3.62481 29.7919 3.76298 30.1794C3.88341 30.5169 4.15074 30.7833 4.48844 30.9037C4.87466 31.0413 5.45286 30.8488 6.60897 30.4632L6.62543 30.4584L9.66528 29.4453C11.8829 30.8524 14.5132 31.667 17.3339 31.667C17.6049 31.667 17.8742 31.6596 18.1415 31.6448ZM18.1415 31.6448C18.1413 31.6441 18.1417 31.6452 18.1415 31.6448ZM18.1415 31.6448C20.1028 37.2239 25.4182 41.2238 31.6677 41.2238C34.4883 41.2238 37.1183 40.4082 39.3358 39.0011L42.3748 40.0142L42.3807 40.0154C43.5446 40.4032 44.1278 40.5976 44.5153 40.4595C44.8531 40.3391 45.117 40.0728 45.2374 39.7352C45.3758 39.347 45.1823 38.7641 44.7931 37.5971L43.7802 34.5581L44.1194 33.9957C45.3175 31.9013 46 29.4751 46 26.8896C46 18.9733 39.5837 12.5558 31.6675 12.5558L31.1309 12.5657L30.8602 12.5789" stroke="#E4B717" stroke-width="5" stroke-linecap="round" stroke-linejoin="round"/>
</svg>
