<svg width="164" height="164" viewBox="0 0 164 164" fill="none" xmlns="http://www.w3.org/2000/svg">
<path d="M82 0C65.782 0 49.9281 4.80922 36.4433 13.8195C22.9584 22.8298 12.4483 35.6364 6.24191 50.6199C0.0355292 65.6035 -1.58834 82.0909 1.57564 97.9974C4.73963 113.904 12.5494 128.515 24.0173 139.983C35.4852 151.451 50.0962 159.26 66.0026 162.424C81.9091 165.588 98.3965 163.964 113.38 157.758C128.364 151.552 141.17 141.042 150.181 127.557C159.191 114.072 164 98.218 164 82C164 60.2522 155.361 39.3952 139.983 24.0172C124.605 8.63926 103.748 0 82 0ZM70.2857 114.741L41 85.4557L50.3129 76.1428L70.2857 96.1157L113.687 52.7143L123.035 62.0037L70.2857 114.741Z" fill="#E4B717"/>
</svg>
