<svg width="17" height="10" viewBox="0 0 17 10" fill="none" xmlns="http://www.w3.org/2000/svg">
<path d="M0.336412 8.01844L7.87203 0.25347C7.96174 0.161304 8.05893 0.0958668 8.16359 0.0571572C8.26825 0.0184475 8.38039 -0.000600038 8.5 1.44009e-05C8.61961 1.44009e-05 8.73175 0.0193692 8.83641 0.0580788C8.94107 0.0967885 9.03826 0.161919 9.12797 0.25347L16.686 8.01844C16.8953 8.23349 17 8.50231 17 8.82489C17 9.14747 16.8879 9.42396 16.6636 9.65438C16.4393 9.88479 16.1777 10 15.8786 10C15.5796 10 15.3179 9.88479 15.0937 9.65438L8.5 2.88019L1.90633 9.65438C1.69701 9.86943 1.43895 9.97696 1.13214 9.97696C0.825331 9.97696 0.560087 9.86175 0.336412 9.63134C0.112137 9.40092 0 9.13211 0 8.82489C0 8.51767 0.112137 8.24885 0.336412 8.01844Z" fill="#A3A3A3"/>
</svg>
