<svg width="24" height="21" viewBox="0 0 24 21" fill="none" xmlns="http://www.w3.org/2000/svg">
<path d="M4.45041 13.4145L2.34766 18.625L7.95501 17.9733L21.1673 6.81161C21.4577 6.56703 21.6907 6.27419 21.8533 5.94984C22.0158 5.62548 22.1046 5.27596 22.1146 4.92122C22.1245 4.56648 22.0555 4.21347 21.9114 3.88235C21.7674 3.55124 21.551 3.24849 21.2748 2.9914C20.9986 2.73431 20.6679 2.52792 20.3016 2.384C19.9353 2.24008 19.5406 2.16146 19.14 2.15262C18.7394 2.14379 18.3407 2.20491 17.9668 2.3325C17.5929 2.46008 17.251 2.65164 16.9607 2.89623L4.45041 13.4145Z" stroke="white" stroke-width="3" stroke-linecap="round" stroke-linejoin="round"/>
</svg>
