<svg width="49" height="43" viewBox="0 0 49 43" fill="none" xmlns="http://www.w3.org/2000/svg">
<path d="M44.5455 0H17.8182C15.3682 0 13.3636 2.00455 13.3636 4.45455V8.90909C6.01364 8.90909 0 14.9227 0 22.2727V35.6364H4.45455C4.45455 39.327 7.44577 42.3182 11.1364 42.3182C14.827 42.3182 17.8182 39.327 17.8182 35.6364H26.7273C26.7273 39.327 29.7185 42.3182 33.4091 42.3182C37.0997 42.3182 40.0909 39.327 40.0909 35.6364H44.5455C46.9955 35.6364 49 33.6318 49 31.1818V4.45455C49 2.00455 46.9955 0 44.5455 0ZM11.1364 37.8636C9.90802 37.8636 8.90909 36.8647 8.90909 35.6364C8.90909 34.408 9.90802 33.4091 11.1364 33.4091C12.3647 33.4091 13.3636 34.408 13.3636 35.6364C13.3636 36.8647 12.3647 37.8636 11.1364 37.8636ZM13.3636 29.3432C12.6665 29.096 11.9181 28.9545 11.1364 28.9545C9.15966 28.9545 7.38898 29.8176 6.1662 31.1818H4.45455V24.5H13.3636V29.3432ZM13.3636 20.0455H4.74743C5.7408 16.209 9.22091 13.3636 13.3636 13.3636V20.0455ZM33.4091 37.8636C32.1808 37.8636 31.1818 36.8647 31.1818 35.6364C31.1818 34.408 32.1808 33.4091 33.4091 33.4091C34.6374 33.4091 35.6364 34.408 35.6364 35.6364C35.6364 36.8647 34.6374 37.8636 33.4091 37.8636ZM44.5455 31.1818H38.3793C37.1554 29.8176 35.3858 28.9545 33.4091 28.9545C31.4324 28.9545 29.6617 29.8176 28.4389 31.1818H17.8182V4.45455H44.5455V31.1818Z" fill="#E4B717"/>
</svg>
