<svg width="52" height="52" viewBox="0 0 52 52" fill="none" xmlns="http://www.w3.org/2000/svg">
<path d="M49.3333 14.6517V1H42.6667V11.3183L37.6667 8.8183V14.6517L36 13.8183V1H29.3333V10.485L26 8.8183V26H13.5C12.8372 26.0007 12.2018 26.2644 11.733 26.733C11.2644 27.2018 11.0007 27.8372 11 28.5V30.1667H5.53817L1 37.4277V45.1667H4.43882C4.62366 45.8822 5.04101 46.516 5.62528 46.9685C6.20956 47.4211 6.92764 47.6667 7.66667 47.6667C8.4057 47.6667 9.12377 47.4211 9.70805 46.9685C10.2923 46.516 10.7097 45.8822 10.8945 45.1667H25.0011C25.2311 45.8921 25.6861 46.5254 26.3003 46.9749C26.9144 47.4244 27.6556 47.6667 28.4167 47.6667C29.1776 47.6667 29.9189 47.4244 30.533 46.9749C31.1471 46.5254 31.6021 45.8921 31.8322 45.1667H36.8333V43.5H36V28.5C35.9993 27.8372 35.7356 27.2018 35.267 26.733C34.7982 26.2644 34.1628 26.0007 33.5 26H27.6667V11.515L37.6667 16.515V42.6667H39.3333V11.515L49.3333 16.515V49.3333H1V51H51V15.485L49.3333 14.6517ZM7.66667 46C7.33703 46 7.0148 45.9023 6.74072 45.7192C6.46664 45.5359 6.25301 45.2757 6.12686 44.9711C6.00072 44.6666 5.96772 44.3315 6.03202 44.0082C6.09633 43.6849 6.25507 43.3879 6.48816 43.1548C6.72124 42.9218 7.01822 42.763 7.34152 42.6986C7.66482 42.6344 7.99993 42.6674 8.30447 42.7935C8.60902 42.9197 8.86931 43.1333 9.05245 43.4074C9.23558 43.6815 9.33333 44.0036 9.33333 44.3333C9.33282 44.7752 9.15707 45.1989 8.84461 45.5112C8.53217 45.8237 8.10854 45.9995 7.66667 46ZM11 43.5H10.8945C10.7097 42.7845 10.2923 42.1506 9.70805 41.6981C9.12377 41.2455 8.4057 41 7.66667 41C6.92764 41 6.20956 41.2455 5.62528 41.6981C5.04101 42.1506 4.62366 42.7845 4.43882 43.5H2.66667V38.5H11V43.5ZM11 36.8333H3.33683L6.46183 31.8333H11V36.8333ZM28.4167 46C28.0376 46 27.6671 45.8876 27.3519 45.677C27.0367 45.4665 26.7909 45.1671 26.6459 44.8169C26.5008 44.4667 26.4628 44.0812 26.5368 43.7095C26.6107 43.3377 26.7932 42.9961 27.0614 42.7281C27.3294 42.46 27.6708 42.2775 28.0427 42.2035C28.4145 42.1296 28.7998 42.1675 29.1501 42.3126C29.5003 42.4576 29.7996 42.7032 30.0102 43.0184C30.2208 43.3336 30.3333 43.7042 30.3333 44.0833C30.3327 44.5915 30.1306 45.0786 29.7714 45.4379C29.412 45.7973 28.9248 45.9994 28.4167 46ZM33.5 27.6667C33.7209 27.6669 33.9327 27.7548 34.089 27.911C34.2452 28.0673 34.3331 28.2791 34.3333 28.5V43.5H31.9518C31.8136 42.6621 31.3823 41.9005 30.7349 41.3511C30.0874 40.8017 29.2658 40.5 28.4167 40.5C27.5675 40.5 26.7458 40.8017 26.0984 41.3511C25.4509 41.9005 25.0197 42.6621 24.8816 43.5H12.6667V28.5C12.6669 28.2791 12.7548 28.0673 12.911 27.911C13.0673 27.7548 13.2791 27.6669 13.5 27.6667H33.5ZM34.3333 12.985L31 11.3183V6H34.3333V12.985ZM34.3333 4.33333H31V2.66667H34.3333V4.33333ZM47.6667 13.8183L44.3333 12.1517V6H47.6667V13.8183ZM47.6667 4.33333H44.3333V2.66667H47.6667V4.33333Z" fill="#FFFCF0" stroke="white"/>
<path d="M17.4019 19.7251L19.725 17.402L18.5878 15.5463L18.8906 14.8156L21.0002 14.3097V11.024L18.8906 10.5182L18.5878 9.78746L19.725 7.93173L17.4019 5.60873L15.5462 6.74591L14.8156 6.44308L14.3097 4.3335H11.0239L10.5181 6.44308L9.78746 6.74591L7.93174 5.60873L5.60874 7.93173L6.74592 9.78746L6.44308 10.5182L4.3335 11.024V14.3097L6.44308 14.8156L6.74592 15.5463L5.60874 17.402L7.93163 19.725L9.78736 18.5879L10.5181 18.8907L11.024 21.0002H14.3098L14.8156 18.8907L15.5462 18.5879L17.4019 19.7251ZM13.3929 17.6761L12.9954 19.3335H12.3383L11.9408 17.6761L9.64091 16.723L8.18106 17.6174L7.71628 17.1526L8.61075 15.693L7.65768 13.3929L6.00017 12.9955V12.3383L7.65768 11.9409L8.61075 9.64081L7.71628 8.18115L8.18116 7.71627L9.64082 8.61074L11.9408 7.65767L12.3383 6.00016H12.9954L13.3929 7.65768L15.6929 8.61075L17.1525 7.71628L17.6174 8.18115L16.7229 9.64081L17.676 11.9409L19.3335 12.3383V12.9955L17.676 13.3929L16.7229 15.693L17.6174 17.1527L17.1525 17.6175L15.6929 16.723L13.3929 17.6761Z" fill="#FFFCF0" stroke="white"/>
<path d="M12.6666 9.3335C12.0073 9.3335 11.3628 9.529 10.8147 9.89527C10.2665 10.2615 9.8393 10.7821 9.587 11.3912C9.33469 12.0003 9.26868 12.6705 9.39731 13.3171C9.52592 13.9637 9.84336 14.5577 10.3096 15.0238C10.7758 15.4901 11.3697 15.8075 12.0163 15.9361C12.6629 16.0647 13.3332 15.9987 13.9422 15.7464C14.5513 15.4941 15.0719 15.0669 15.4382 14.5187C15.8044 13.9706 15.9999 13.3261 15.9999 12.6668C15.9989 11.7831 15.6474 10.9358 15.0225 10.3109C14.3976 9.68602 13.5503 9.33451 12.6666 9.3335ZM12.6666 14.3335C12.337 14.3335 12.0147 14.2358 11.7407 14.0527C11.4666 13.8694 11.2529 13.6092 11.1268 13.3046C11.0007 13.0001 10.9676 12.665 11.0319 12.3417C11.0963 12.0184 11.255 11.7214 11.488 11.4883C11.7212 11.2553 12.0182 11.0965 12.3415 11.0321C12.6647 10.9679 12.9998 11.0009 13.3044 11.127C13.609 11.2532 13.8692 11.4668 14.0524 11.7409C14.2355 12.015 14.3333 12.3371 14.3333 12.6668C14.3327 13.1087 14.157 13.5324 13.8445 13.8447C13.5321 14.1572 13.1085 14.333 12.6666 14.3335Z" fill="#FFFCF0" stroke="white"/>
<path d="M46.8333 17.6665H41.8333V24.3332H46.8333V17.6665ZM45.1666 22.6665H43.4999V19.3332H45.1666V22.6665Z" fill="#FFFCF0" stroke="white"/>
<path d="M35.1667 24.3332V17.6665H30.1667V24.3332H35.1667ZM31.8334 19.3332H33.5001V22.6665H31.8334V19.3332Z" fill="#FFFCF0" stroke="white"/>
<path d="M41.8333 33.5002H46.8333V26.8335H41.8333V33.5002ZM43.4999 28.5002H45.1666V31.8335H43.4999V28.5002Z" fill="#FFFCF0" stroke="white"/>
<path d="M41.8333 42.6667H46.8333V36H41.8333V42.6667ZM43.4999 37.6667H45.1666V41H43.4999V37.6667Z" fill="#FFFCF0" stroke="white"/>
<path d="M16.8334 29.3335H15.1667V41.8335H16.8334V29.3335Z" fill="#FFFCF0" stroke="white"/>
<path d="M21.8334 29.3335H20.1667V41.8335H21.8334V29.3335Z" fill="#FFFCF0" stroke="white"/>
<path d="M26.8334 29.3335H25.1667V39.3335H26.8334V29.3335Z" fill="#FFFCF0" stroke="white"/>
<path d="M31.8334 29.3335H30.1667V39.3335H31.8334V29.3335Z" fill="#FFFCF0" stroke="white"/>
<path d="M12.6667 24.3331C13.573 24.3334 14.4762 24.2286 15.3584 24.0208L14.9751 22.3989C14.2186 22.5769 13.4439 22.6667 12.6667 22.6664V24.3331Z" fill="#FFFCF0" stroke="white"/>
<path d="M3.14874 15.744C2.56234 13.9295 2.50691 11.9852 2.98897 10.1402C3.47104 8.29519 4.47052 6.62648 5.86961 5.33074C7.26868 4.035 9.00903 3.16624 10.8855 2.82688C12.762 2.48751 14.6964 2.69168 16.4607 3.41532C18.225 4.13896 19.7456 5.35191 20.8433 6.91118C21.941 8.47045 22.5701 10.311 22.6565 12.216C22.7427 14.121 22.2826 16.0109 21.3303 17.663C20.3779 19.3152 18.9732 20.6606 17.2816 21.5407L18.0518 23.0188C20.023 21.9914 21.6595 20.4221 22.7684 18.4956C23.8775 16.5693 24.4128 14.3659 24.3115 12.1454C24.21 9.92488 23.476 7.77957 22.1961 5.96224C20.9161 4.1449 19.1434 2.73123 17.0868 1.88778C15.0302 1.04432 12.7754 0.806219 10.5879 1.2015C8.40054 1.59679 6.37166 2.60901 4.74033 4.11892C3.109 5.62882 1.94318 7.57351 1.38021 9.72388C0.817242 11.8742 0.880575 14.1407 1.56274 16.2563L3.14874 15.744Z" fill="#FFFCF0" stroke="white"/>
<path d="M4.2047 17.998L2.79541 18.8879C3.30239 19.6903 3.90491 20.4283 4.58973 21.0854L5.74371 19.883C5.15633 19.3193 4.63955 18.6864 4.2047 17.998Z" fill="#FFFCF0" stroke="white"/>
<path d="M7.28149 23.0184C8.13436 23.463 9.0392 23.7998 9.97516 24.021L10.3583 22.399C9.55688 22.2096 8.78215 21.9213 8.05195 21.5405L7.28149 23.0184Z" fill="#FFFCF0" stroke="white"/>
</svg>
