<svg width="52" height="51" viewBox="0 0 52 51" fill="none" xmlns="http://www.w3.org/2000/svg">
<path d="M47.58 11.7425L30.8657 1.38599C29.4024 0.47979 27.7181 0 26 0C24.2819 0 22.5976 0.47979 21.1343 1.38599L4.42 11.7425C3.07414 12.576 1.96183 13.7414 1.18837 15.1284C0.414911 16.5154 0.00588222 18.0782 0 19.6688V24.8283C0 25.3241 0.195663 25.7996 0.543944 26.1502C0.892226 26.5008 1.3646 26.6977 1.85714 26.6977H5.57143V41.653C5.48607 44.0418 6.34525 46.3673 7.9606 48.1194C9.57595 49.8716 11.8156 50.9075 14.1886 51H37.8114C40.1844 50.9075 42.4241 49.8716 44.0394 48.1194C45.6547 46.3673 46.5139 44.0418 46.4286 41.653V26.6977H50.1429C50.6354 26.6977 51.1078 26.5008 51.4561 26.1502C51.8043 25.7996 52 25.3241 52 24.8283V19.6688C51.9941 18.0782 51.5851 16.5154 50.8116 15.1284C50.0382 13.7414 48.9259 12.576 47.58 11.7425ZM18.5714 47.2612V41.653C18.5714 40.1656 19.1584 38.7391 20.2033 37.6874C21.2481 36.6356 22.6652 36.0448 24.1429 36.0448H27.8571C29.3348 36.0448 30.7519 36.6356 31.7967 37.6874C32.8416 38.7391 33.4286 40.1656 33.4286 41.653V47.2612H18.5714ZM48.2857 22.9589H44.5714C44.0789 22.9589 43.6065 23.1559 43.2582 23.5065C42.9099 23.857 42.7143 24.3325 42.7143 24.8283V41.653C42.7959 43.0494 42.3266 44.4218 41.4086 45.472C40.4905 46.5221 39.1978 47.1651 37.8114 47.2612H37.1429V41.653C37.1429 39.174 36.1645 36.7965 34.4231 35.0436C32.6817 33.2907 30.3199 32.306 27.8571 32.306H24.1429C21.6801 32.306 19.3183 33.2907 17.5769 35.0436C15.8355 36.7965 14.8571 39.174 14.8571 41.653V47.2612H14.1886C12.8022 47.1651 11.5095 46.5221 10.5914 45.472C9.67337 44.4218 9.20414 43.0494 9.28571 41.653V24.8283C9.28571 24.3325 9.09005 23.857 8.74177 23.5065C8.39349 23.1559 7.92112 22.9589 7.42857 22.9589H3.71429V19.6688C3.71314 18.709 3.95671 17.765 4.42169 16.9271C4.88668 16.0892 5.55751 15.3854 6.37 14.8831L23.0843 4.52659C23.9614 3.98434 24.9707 3.6973 26 3.6973C27.0293 3.6973 28.0386 3.98434 28.9157 4.52659L45.63 14.8831C46.4425 15.3854 47.1133 16.0892 47.5783 16.9271C48.0433 17.765 48.2869 18.709 48.2857 19.6688V22.9589Z" fill="#D7D7D7"/>
</svg>
