<svg width="22" height="22" viewBox="0 0 22 22" fill="none" xmlns="http://www.w3.org/2000/svg">
<path d="M1.51382 7.66667H20.2281M1.51382 14.3333H20.2281M0.845459 11C0.845459 12.3132 1.10478 13.6136 1.6086 14.8268C2.11243 16.0401 2.8509 17.1425 3.78186 18.0711C4.71281 18.9997 5.81801 19.7363 7.03436 20.2388C8.25071 20.7413 9.55438 21 10.8709 21C12.1875 21 13.4912 20.7413 14.7075 20.2388C15.9239 19.7363 17.0291 18.9997 17.96 18.0711C18.891 17.1425 19.6295 16.0401 20.1333 14.8268C20.6371 13.6136 20.8964 12.3132 20.8964 11C20.8964 8.34784 19.8402 5.8043 17.96 3.92893C16.0799 2.05357 13.5299 1 10.8709 1C8.21202 1 5.662 2.05357 3.78186 3.92893C1.90171 5.8043 0.845459 8.34784 0.845459 11Z" stroke="#363636" stroke-width="1.5" stroke-linecap="round" stroke-linejoin="round"/>
<path d="M10.3137 1C8.43704 3.99957 7.44214 7.46429 7.44214 11C7.44214 14.5357 8.43704 18.0004 10.3137 21M11.4276 1C13.3042 3.99957 14.2991 7.46429 14.2991 11C14.2991 14.5357 13.3042 18.0004 11.4276 21" stroke="#363636" stroke-width="1.5" stroke-linecap="round" stroke-linejoin="round"/>
</svg>
