<svg width="23" height="23" viewBox="0 0 23 23" fill="none" xmlns="http://www.w3.org/2000/svg">
<path d="M3.80225 5.69487L9.58247 10.0539C10.7295 10.919 12.2705 10.919 13.4175 10.0539L19.1977 5.69487M2.38539 14.8263C1.87154 12.642 1.87154 10.358 2.38539 8.17368C3.05805 5.31427 5.20602 3.10341 7.93056 2.46615L8.38443 2.36C10.4366 1.88 12.5634 1.88 14.6156 2.36L15.0694 2.46615C17.794 3.10341 19.942 5.31427 20.6146 8.17369C21.1285 10.358 21.1285 12.642 20.6146 14.8263C19.942 17.6857 17.794 19.8966 15.0694 20.5338L14.6156 20.64C12.5634 21.12 10.4366 21.12 8.38443 20.64L7.93055 20.5338C5.20601 19.8966 3.05805 17.6857 2.38539 14.8263Z" stroke="#E4B717" stroke-width="3" stroke-linecap="round"/>
</svg>
