<svg width="23" height="22" viewBox="0 0 23 22" fill="none" xmlns="http://www.w3.org/2000/svg">
<path d="M17.9937 15.8302L22.644 20.4676L21.1076 22L16.4584 17.3615C14.7285 18.7448 12.5768 19.4971 10.3597 19.4939C4.96566 19.4939 0.587891 15.1273 0.587891 9.74697C0.587891 4.36664 4.96566 0 10.3597 0C15.7537 0 20.1315 4.36664 20.1315 9.74697C20.1347 11.9585 19.3804 14.1047 17.9937 15.8302ZM15.8156 15.0266C17.1936 13.6131 17.9631 11.7185 17.96 9.74697C17.96 5.55902 14.5583 2.16599 10.3597 2.16599C6.16108 2.16599 2.75941 5.55902 2.75941 9.74697C2.75941 13.9349 6.16108 17.328 10.3597 17.328C12.3363 17.3311 14.2357 16.5635 15.6528 15.189L15.8156 15.0266Z" fill="#363636"/>
</svg>
