<svg width="18" height="29" viewBox="0 0 18 29" fill="none" xmlns="http://www.w3.org/2000/svg">
<path d="M1 8.9785V19.9C1 22.0483 1.84286 24.1085 3.34315 25.6276C4.84344 27.1466 6.87827 28 9 28C11.1217 28 13.1566 27.1466 14.6569 25.6276C16.1571 24.1085 17 22.0483 17 19.9V6.4C17 4.96783 16.4381 3.59432 15.4379 2.58162C14.4377 1.56893 13.0812 1 11.6667 1C10.2522 1 8.89562 1.56893 7.89543 2.58162C6.89524 3.59432 6.33333 4.96783 6.33333 6.4V18.7957C6.33333 19.1503 6.40231 19.5014 6.53632 19.8289C6.67033 20.1565 6.86676 20.4542 7.11438 20.7049C7.36201 20.9556 7.65598 21.1545 7.97951 21.2902C8.30305 21.4259 8.64981 21.4957 9 21.4957C9.70724 21.4957 10.3855 21.2112 10.8856 20.7049C11.3857 20.1985 11.6667 19.5118 11.6667 18.7957V9.1" stroke="#E4B717" stroke-width="2" stroke-linecap="round" stroke-linejoin="round"/>
</svg>
