<svg width="61" height="36" viewBox="0 0 61 36" fill="none" xmlns="http://www.w3.org/2000/svg">
<path d="M4.91648 13.9663L4.91649 13.9662C5.01022 13.8725 5.13737 13.8198 5.27 13.8198C5.40263 13.8198 5.52978 13.8725 5.62351 13.9662L5.62352 13.9663C5.71734 14.0601 5.77 14.1873 5.77 14.3198V21.6798C5.77 21.8126 5.71729 21.9396 5.62366 22.0333L5.62351 22.0334C5.52978 22.1271 5.40263 22.1798 5.27 22.1798C5.13737 22.1798 5.01022 22.1271 4.91649 22.0334L4.91634 22.0333C4.82271 21.9396 4.77 21.8126 4.77 21.6798V19.9998V18.4998H3.27H2C1.86737 18.4998 1.74022 18.4471 1.64649 18.3534L1.64634 18.3533C1.55271 18.2596 1.5 18.1326 1.5 17.9998C1.5 17.8673 1.55266 17.7401 1.64648 17.6463L1.64649 17.6462C1.74022 17.5525 1.86737 17.4998 2 17.4998H3.27H4.77V15.9998V14.3198C4.77 14.1873 4.82266 14.0601 4.91648 13.9663ZM3.85636 12.9062L3.86087 12.9107L3.85636 12.9062Z" stroke="#D7D7D7" stroke-width="3"/>
<path d="M10.4764 28.4635L10.4767 28.4638C10.5703 28.5574 10.6973 28.6101 10.8301 28.6101C10.9626 28.6101 11.0898 28.5574 11.1836 28.4636L11.1838 28.4635C11.2774 28.3699 11.3301 28.2428 11.3301 28.1101V7.89008C11.3301 7.75758 11.2775 7.63047 11.1838 7.53668C11.1837 7.53663 11.1837 7.53658 11.1836 7.53654M10.4764 28.4635L11.1836 7.53654M10.4764 28.4635C10.3828 28.3699 10.3301 28.2428 10.3301 28.1101V7.89008C10.3301 7.75751 10.3827 7.63034 10.4765 7.53654C10.5703 7.44277 10.6975 7.39008 10.8301 7.39008C10.9624 7.39008 11.0896 7.44267 11.1836 7.53654M10.4764 28.4635L11.1836 7.53654" stroke="#D7D7D7" stroke-width="3"/>
<path d="M49.0262 28.4635L49.0265 28.4638C49.1201 28.5574 49.2471 28.6101 49.3799 28.6101C49.5124 28.6101 49.6396 28.5574 49.7334 28.4636L49.7336 28.4635C49.8272 28.3699 49.8799 28.2428 49.8799 28.1101V7.89008C49.8799 7.75758 49.8273 7.63047 49.7336 7.53668C49.7335 7.53663 49.7335 7.53658 49.7334 7.53654M49.0262 28.4635L49.7334 7.53654M49.0262 28.4635C48.9326 28.3699 48.8799 28.2428 48.8799 28.1101V7.89008C48.8799 7.7575 48.9325 7.63033 49.0263 7.53654C49.1201 7.44277 49.2473 7.39008 49.3799 7.39008C49.5122 7.39008 49.6395 7.44267 49.7334 7.53654M49.0262 28.4635L49.7334 7.53654" stroke="#D7D7D7" stroke-width="3"/>
<path d="M41.8196 17.5H43.3196V16V2C43.3196 1.86743 43.3723 1.74026 43.4661 1.64646C43.5599 1.55266 43.6871 1.5 43.8196 1.5C43.9522 1.5 44.0794 1.55266 44.1732 1.64646C44.267 1.74026 44.3196 1.86743 44.3196 2V34C44.3196 34.1326 44.267 34.2597 44.1732 34.3535C44.0794 34.4473 43.9522 34.5 43.8196 34.5C43.6871 34.5 43.5599 34.4473 43.4661 34.3535C43.3723 34.2597 43.3196 34.1326 43.3196 34V20V18.5H41.8196H18.3896H16.8896V20V34C16.8896 34.1326 16.837 34.2597 16.7432 34.3535C16.6494 34.4473 16.5222 34.5 16.3896 34.5C16.2571 34.5 16.1299 34.4473 16.0361 34.3535C15.9423 34.2597 15.8896 34.1326 15.8896 34V2C15.8896 1.86743 15.9423 1.74026 16.0361 1.64646C16.1299 1.55266 16.2571 1.5 16.3896 1.5C16.5222 1.5 16.6494 1.55266 16.7432 1.64646C16.837 1.74026 16.8896 1.86743 16.8896 2V16V17.5H18.3896H41.8196Z" stroke="#D7D7D7" stroke-width="3"/>
<path d="M55.4297 15.9998V17.4998H56.9297H58.2097C58.3424 17.4998 58.4695 17.5525 58.5631 17.6461L58.5632 17.6463C58.657 17.7401 58.7097 17.8673 58.7097 17.9998C58.7097 18.1326 58.657 18.2596 58.5634 18.3532L58.5631 18.3535C58.4695 18.4471 58.3424 18.4998 58.2097 18.4998H56.9297H55.4297V19.9998V21.6798C55.4297 21.8126 55.377 21.9396 55.2834 22.0332L55.2831 22.0335C55.1895 22.1271 55.0624 22.1798 54.9297 22.1798C54.7971 22.1798 54.6699 22.1272 54.5761 22.0334L54.576 22.0332C54.4824 21.9396 54.4297 21.8126 54.4297 21.6798V14.3198C54.4297 14.1873 54.4823 14.0601 54.5761 13.9663C54.6699 13.8725 54.7971 13.8198 54.9297 13.8198C55.0624 13.8198 55.1895 13.8725 55.2831 13.9661L55.2832 13.9663C55.377 14.0601 55.4297 14.1873 55.4297 14.3198V15.9998Z" stroke="#D7D7D7" stroke-width="3"/>
</svg>
