<svg width="27" height="26" viewBox="0 0 27 26" fill="none" xmlns="http://www.w3.org/2000/svg">
<path d="M17.7932 8.02577L17.6798 7.78427L14.5607 1.13948C14.3771 0.748572 13.9851 0.5 13.5544 0.5C13.1233 0.5 12.7317 0.748507 12.548 1.13948L9.42852 7.78469L9.31516 8.02618L9.05144 8.06648L2.10729 9.12763C2.10727 9.12764 2.10725 9.12764 2.10722 9.12764C1.69583 9.19059 1.35407 9.47809 1.22164 9.87342C1.08939 10.2682 1.18892 10.7033 1.48035 11.0025C1.4804 11.0025 1.48044 11.0026 1.48048 11.0026L6.55153 16.2027L6.72768 16.3834L6.68703 16.6324L5.48599 23.989C5.41777 24.4085 5.59562 24.8314 5.944 25.0777L5.94416 25.0778C6.29015 25.3225 6.7486 25.3482 7.12305 25.1416C7.1231 25.1416 7.12316 25.1416 7.12321 25.1415L13.3128 21.7184L13.5548 21.5846L13.7968 21.7184L19.9867 25.1417C20.1552 25.2349 20.3406 25.2806 20.5256 25.2806C20.7504 25.2806 20.9749 25.2123 21.1658 25.0775L21.1658 25.0775C21.5135 24.832 21.6914 24.4095 21.6232 23.9893L17.7932 8.02577ZM17.7932 8.02577L18.0569 8.06607M17.7932 8.02577L18.0569 8.06607M18.0569 8.06607L25.0011 9.12722C25.0011 9.12723 25.0011 9.12723 25.0011 9.12723M18.0569 8.06607L25.0011 9.12723M25.0011 9.12723C25.4121 9.19013 25.7541 9.47772 25.8871 9.87291M25.0011 9.12723L25.8871 9.87291M25.8871 9.87291C26.0194 10.2681 25.9199 10.7033 25.6292 11.0025L25.8871 9.87291ZM20.4221 16.6324L21.6232 23.989L25.6287 11.003L20.5576 16.2027L20.3815 16.3834L20.4221 16.6324Z" stroke="#E4B717"/>
</svg>
