<svg width="27" height="26" viewBox="0 0 27 26" fill="none" xmlns="http://www.w3.org/2000/svg">
<path d="M26.2518 9.71419C26.0595 9.14166 25.5639 8.72423 24.9673 8.63297L18.0231 7.57181L14.9039 0.926935C14.6379 0.360543 14.0695 0 13.445 0C12.8201 0 12.2521 0.360543 11.9861 0.926935L8.86654 7.57222L1.92232 8.63338C1.32566 8.72464 0.830084 9.14166 0.638155 9.7146C0.446226 10.2875 0.591094 10.9186 1.01301 11.3516L6.08418 16.5518L4.8831 23.9088C4.78406 24.5177 5.04229 25.13 5.54605 25.486C6.0494 25.842 6.71399 25.878 7.2554 25.5793L13.4454 22.156L19.6354 25.5793C19.8797 25.7143 20.1486 25.7806 20.4162 25.7806C20.742 25.7806 21.0677 25.6816 21.3448 25.486C21.8485 25.1304 22.1063 24.5181 22.0073 23.9088L20.8062 16.5518L25.8778 11.3516C26.2989 10.9186 26.4438 10.2875 26.2518 9.71419Z" fill="#E4B717"/>
</svg>
