<svg width="52" height="55" viewBox="0 0 52 55" fill="none" xmlns="http://www.w3.org/2000/svg">
<path d="M25.5475 37.083C34.6656 37.083 42.0572 29.599 42.0572 20.367C42.0572 11.135 34.6656 3.65094 25.5475 3.65094C16.4295 3.65094 9.03784 11.135 9.03784 20.367C9.03784 29.599 16.4295 37.083 25.5475 37.083Z" stroke="#D7D7D7" stroke-width="3" stroke-miterlimit="10" stroke-linecap="round" stroke-linejoin="round"/>
<path d="M9.03781 18.5097C5.5295 17.6842 2.84668 14.3823 2.84668 10.2548C2.84668 5.71468 6.56136 2 11.1015 2C13.7843 2 16.2608 3.4446 17.7054 5.50831" stroke="#D7D7D7" stroke-width="3" stroke-miterlimit="10" stroke-linecap="round" stroke-linejoin="round"/>
<path d="M33.3896 5.50831C34.8342 3.4446 37.3107 2 39.9935 2C44.5337 2 48.2484 5.71468 48.2484 10.4612C48.2484 14.3823 45.5655 17.6842 42.0572 18.716" stroke="#D7D7D7" stroke-width="3" stroke-miterlimit="10" stroke-linecap="round" stroke-linejoin="round"/>
<path d="M21.42 18.5097V20.5734" stroke="#D7D7D7" stroke-width="3" stroke-miterlimit="10" stroke-linecap="round" stroke-linejoin="round"/>
<path d="M29.6749 18.5097V20.5734" stroke="#D7D7D7" stroke-width="3" stroke-miterlimit="10" stroke-linecap="round" stroke-linejoin="round"/>
<path d="M25.5475 22.6371V26.7645" stroke="#D7D7D7" stroke-width="3" stroke-miterlimit="10" stroke-linecap="round" stroke-linejoin="round"/>
<path d="M16.0339 50.2974C18.2956 48.046 17.4565 43.5361 14.1597 40.2243C10.8629 36.9126 6.35683 36.053 4.09514 38.3045C1.83346 40.556 2.67258 45.0659 5.96938 48.3776C9.26618 51.6894 13.7722 52.5489 16.0339 50.2974Z" stroke="#D7D7D7" stroke-width="3" stroke-miterlimit="10" stroke-linecap="round" stroke-linejoin="round"/>
<path d="M45.1234 48.3864C48.4202 45.0746 49.2593 40.5648 46.9977 38.3133C44.736 36.0618 40.2299 36.9213 36.9331 40.2331C33.6363 43.5448 32.7972 48.0547 35.0589 50.3062C37.3206 52.5577 41.8266 51.6981 45.1234 48.3864Z" stroke="#D7D7D7" stroke-width="3" stroke-miterlimit="10" stroke-linecap="round" stroke-linejoin="round"/>
<path d="M11.1016 37.9086C11.1016 37.7022 11.1016 37.2895 11.1016 37.0831C11.1016 34.813 11.7207 32.5429 12.5462 30.6856" stroke="#D7D7D7" stroke-width="3" stroke-miterlimit="10" stroke-linecap="round" stroke-linejoin="round"/>
<path d="M34.2152 48.6398C31.7387 50.4971 28.8495 51.529 25.5476 51.529C22.2456 51.529 19.3565 50.4971 16.88 48.6398" stroke="#D7D7D7" stroke-width="3" stroke-miterlimit="10" stroke-linecap="round" stroke-linejoin="round"/>
<path d="M38.549 30.6856C39.5808 32.5429 39.9935 34.813 39.9935 37.0831C39.9935 37.2895 39.9935 37.7022 39.9935 37.9086" stroke="#D7D7D7" stroke-width="3" stroke-miterlimit="10" stroke-linecap="round" stroke-linejoin="round"/>
<path d="M5.32314 37.7022C5.11677 36.8767 4.9104 35.8448 4.9104 35.0194C4.9104 30.8919 7.18048 27.3836 10.276 26.7645" stroke="#D7D7D7" stroke-width="3" stroke-miterlimit="10" stroke-linecap="round" stroke-linejoin="round"/>
<path d="M40.8187 26.7645C43.9143 27.1773 46.1844 30.6856 46.1844 35.0194C46.1844 35.8448 45.978 36.8767 45.7716 37.7022" stroke="#D7D7D7" stroke-width="3" stroke-miterlimit="10" stroke-linecap="round" stroke-linejoin="round"/>
<path d="M13.1652 30.8919C13.1652 26.3518 18.7372 22.6371 25.5474 22.6371C32.3577 22.6371 37.9297 26.3518 37.9297 30.8919" stroke="#D7D7D7" stroke-width="3" stroke-miterlimit="10" stroke-linecap="round" stroke-linejoin="round"/>
</svg>
