<svg width="65" height="51" viewBox="0 0 65 51" fill="none" xmlns="http://www.w3.org/2000/svg">
<path d="M63.5021 10.5586L54.2627 1.50477C53.3069 0.567334 52.033 0.0470736 50.6738 0.0389573C50.5131 0.0170431 50.3508 0 50.1843 0H45.3688C44.9762 0 44.601 0.155834 44.3285 0.430979C44.0551 0.706936 43.9077 1.07867 43.9193 1.46257C43.9218 1.53643 43.9276 1.60948 43.9325 1.68252L43.9392 1.77343C43.9392 7.32827 38.808 11.8466 32.5008 11.8466C26.1935 11.8466 21.0624 7.32827 21.0624 1.77343L21.069 1.67846C21.074 1.60866 21.0789 1.53886 21.0823 1.46825C21.0955 1.08353 20.9481 0.710181 20.6747 0.433413C20.4022 0.156645 20.0262 0.000811191 19.6328 0.000811191H15.1808C14.9721 0.000811191 14.7609 0.0170437 14.524 0.0519441C13.0895 -0.00405885 11.7369 0.526752 10.7397 1.50559L1.49782 10.5586C-0.499136 12.5162 -0.499136 15.7019 1.49699 17.6604L9.04833 25.0585C9.46163 25.4643 9.94037 25.7938 10.4638 26.0381V46.3802C10.4638 48.9279 12.5801 51 15.1792 51H50.1835C52.7834 51 54.8972 48.9271 54.8972 46.3802V25.8441C55.2856 25.6282 55.6377 25.3653 55.9499 25.0585L63.5013 17.6596C65.4999 15.7019 65.499 12.5162 63.5021 10.5586ZM31.0505 48.1585H15.18C14.1786 48.1585 13.3636 47.3606 13.3636 46.3794V25.0268C13.3636 24.3548 12.8832 23.7753 12.2123 23.6373C11.7858 23.5496 11.4014 23.3467 11.0983 23.0497L3.54779 15.6508C2.67976 14.801 2.68059 13.4172 3.54862 12.5666L12.788 3.51276C13.1988 3.11019 13.7546 2.88861 14.3526 2.88861C14.4047 2.88861 14.4578 2.89024 14.5099 2.89348C14.6267 2.9016 14.7443 2.8943 14.8603 2.87563C14.9647 2.85696 15.0698 2.84073 15.18 2.84073H18.2115C18.7772 9.03189 24.2123 13.9983 31.0505 14.6192V48.1585ZM61.4529 15.6508L53.9016 23.0505C53.6639 23.2826 53.3632 23.4571 53.0054 23.5699C52.4057 23.7582 51.9991 24.3053 51.9991 24.9221V46.3794C51.9991 47.3606 51.1857 48.1585 50.1843 48.1585H33.9494V14.6192C40.7876 13.9975 46.2227 9.03189 46.7884 2.84073H50.1744C50.2125 2.84235 50.2489 2.84884 50.2862 2.85453L50.4046 2.86995C50.4626 2.87725 50.5819 2.8805 50.6407 2.8805C51.2379 2.8805 51.7961 3.10532 52.2128 3.51439L61.4513 12.5682C62.3201 13.4172 62.3201 14.801 61.4529 15.6508Z" fill="#4D4D4D"/>
<path d="M17.207 23.0709V25.6799C17.207 26.3242 17.7285 26.8457 18.3728 26.8457H27.5041C28.1476 26.8457 28.6699 26.3242 28.6699 25.6799V23.0709C28.6699 22.4266 28.1476 21.9051 27.5041 21.9051H18.3728C17.7285 21.9051 17.207 22.4266 17.207 23.0709Z" fill="#4D4D4D"/>
<path d="M46.4794 22.0458H38.2955C37.6652 22.0458 37.1188 22.4779 36.9727 23.0903C36.9027 23.3826 36.8685 23.6554 36.8685 23.9235V27.7729C36.8685 29.7548 38.4804 31.3667 40.4631 31.3667H44.3125C46.2936 31.3667 47.9055 29.7548 47.9055 27.7729V23.9235C47.9055 23.6546 47.8721 23.3826 47.8022 23.0903C47.6568 22.4779 47.1089 22.0458 46.4794 22.0458ZM45.1853 27.7729C45.1853 28.2548 44.7936 28.6465 44.3125 28.6465H40.4631C39.9812 28.6465 39.5887 28.2548 39.5887 27.7729V24.766H45.1853V27.7729Z" fill="#4D4D4D"/>
</svg>
