<svg width="20" height="25" viewBox="0 0 20 25" fill="none" xmlns="http://www.w3.org/2000/svg">
<path d="M2 20.7967C2 17.9814 3.9398 15.5834 6.57605 15.1398L6.81351 15.0998C8.92448 14.7445 11.0755 14.7445 13.1865 15.0998L13.424 15.1398C16.0602 15.5834 18 17.9814 18 20.7967C18 22.0136 17.0646 23 15.9107 23H4.08929C2.93541 23 2 22.0136 2 20.7967Z" stroke="white" stroke-width="3"/>
<path d="M14.6667 6.59375C14.6667 9.13081 12.5774 11.1875 10 11.1875C7.42269 11.1875 5.33336 9.13081 5.33336 6.59375C5.33336 4.05669 7.42269 2 10 2C12.5774 2 14.6667 4.05669 14.6667 6.59375Z" stroke="white" stroke-width="3"/>
</svg>
