<svg width="25" height="17" viewBox="0 0 25 17" fill="none" xmlns="http://www.w3.org/2000/svg">
<path fill-rule="evenodd" clip-rule="evenodd" d="M24.2999 8.86978C24.2999 8.64527 24.2139 8.42994 24.0608 8.27118C23.9077 8.11242 23.7 8.02323 23.4835 8.02323H4.2284L9.36669 2.69673C9.44259 2.61803 9.5028 2.52459 9.54388 2.42175C9.58496 2.31891 9.60611 2.20869 9.60611 2.09738C9.60611 1.98607 9.58496 1.87584 9.54388 1.77301C9.5028 1.67017 9.44259 1.57673 9.36669 1.49802C9.29079 1.41931 9.20068 1.35687 9.1015 1.31428C9.00233 1.27168 8.89604 1.24976 8.78869 1.24976C8.68135 1.24976 8.57506 1.27168 8.47588 1.31428C8.37671 1.35687 8.2866 1.41931 8.2107 1.49802L1.67966 8.27043C1.60363 8.34906 1.54332 8.44248 1.50216 8.54533C1.461 8.64818 1.43982 8.75843 1.43982 8.86978C1.43982 8.98114 1.461 9.09139 1.50216 9.19424C1.54332 9.29709 1.60363 9.39051 1.67966 9.46914L8.2107 16.2416C8.2866 16.3203 8.37671 16.3827 8.47588 16.4253C8.57506 16.4679 8.68135 16.4898 8.78869 16.4898C8.89604 16.4898 9.00233 16.4679 9.1015 16.4253C9.20068 16.3827 9.29079 16.3203 9.36669 16.2416C9.44259 16.1628 9.5028 16.0694 9.54388 15.9666C9.58496 15.8637 9.60611 15.7535 9.60611 15.6422C9.60611 15.5309 9.58496 15.4207 9.54388 15.3178C9.5028 15.215 9.44259 15.1215 9.36669 15.0428L4.2284 9.71634H23.4835C23.7 9.71634 23.9077 9.62715 24.0608 9.46839C24.2139 9.30963 24.2999 9.0943 24.2999 8.86978Z" fill="#D7D7D7" stroke="#D7D7D7"/>
</svg>
