<svg width="43" height="43" viewBox="0 0 43 43" fill="none" xmlns="http://www.w3.org/2000/svg">
<path d="M11 12L13.1953 12.38L14.2117 24.4889C14.2929 25.4778 15.1193 26.2367 16.1114 26.2335H27.6251C28.5718 26.2356 29.375 25.539 29.509 24.6018L30.5106 17.6803C30.6225 16.9067 30.0853 16.189 29.3127 16.0771C29.2452 16.0676 13.5478 16.0623 13.5478 16.0623" stroke="#363636" stroke-width="1.5" stroke-linecap="round" stroke-linejoin="round"/>
<path d="M23.0059 19.9631H25.9326" stroke="#363636" stroke-width="1.5" stroke-linecap="round" stroke-linejoin="round"/>
<path fill-rule="evenodd" clip-rule="evenodd" d="M15.6484 29.8922C15.9661 29.8922 16.2225 30.1498 16.2225 30.4664C16.2225 30.7841 15.9661 31.0416 15.6484 31.0416C15.3307 31.0416 15.0742 30.7841 15.0742 30.4664C15.0742 30.1498 15.3307 29.8922 15.6484 29.8922Z" fill="#363636" stroke="#363636" stroke-width="1.5" stroke-linecap="round" stroke-linejoin="round"/>
<path fill-rule="evenodd" clip-rule="evenodd" d="M27.5546 29.8922C27.8723 29.8922 28.1298 30.1498 28.1298 30.4664C28.1298 30.7841 27.8723 31.0416 27.5546 31.0416C27.2369 31.0416 26.9805 30.7841 26.9805 30.4664C26.9805 30.1498 27.2369 29.8922 27.5546 29.8922Z" fill="#363636" stroke="#363636" stroke-width="1.5" stroke-linecap="round" stroke-linejoin="round"/>
<circle cx="21.5" cy="21.5" r="21" stroke="#D9D9D9"/>
</svg>
