<svg width="22" height="21" viewBox="0 0 22 21" fill="none" xmlns="http://www.w3.org/2000/svg">
<path d="M0.918457 1L3.11934 1.37995L4.13831 13.4889C4.21978 14.4778 5.04829 15.2367 6.04292 15.2335H17.5859C18.5351 15.2356 19.3403 14.539 19.4747 13.6018L20.4788 6.68031C20.591 5.90668 20.0524 5.18899 19.2779 5.07712C19.2101 5.06762 3.47275 5.06234 3.47275 5.06234" stroke="#363636" stroke-width="1.5" stroke-linecap="round" stroke-linejoin="round"/>
<path d="M12.9546 8.96326H15.8887" stroke="#363636" stroke-width="1.5" stroke-linecap="round" stroke-linejoin="round"/>
<path fill-rule="evenodd" clip-rule="evenodd" d="M5.57855 18.8921C5.89704 18.8921 6.15416 19.1496 6.15416 19.4662C6.15416 19.7839 5.89704 20.0415 5.57855 20.0415C5.26005 20.0415 5.00293 19.7839 5.00293 19.4662C5.00293 19.1496 5.26005 18.8921 5.57855 18.8921Z" fill="#363636" stroke="#363636" stroke-width="1.5" stroke-linecap="round" stroke-linejoin="round"/>
<path fill-rule="evenodd" clip-rule="evenodd" d="M17.5146 18.8921C17.8331 18.8921 18.0913 19.1496 18.0913 19.4662C18.0913 19.7839 17.8331 20.0415 17.5146 20.0415C17.1961 20.0415 16.939 19.7839 16.939 19.4662C16.939 19.1496 17.1961 18.8921 17.5146 18.8921Z" fill="#363636" stroke="#363636" stroke-width="1.5" stroke-linecap="round" stroke-linejoin="round"/>
</svg>
