<svg width="25" height="25" viewBox="0 0 25 25" fill="none" xmlns="http://www.w3.org/2000/svg">
<mask id="mask0_94_1466" style="mask-type:luminance" maskUnits="userSpaceOnUse" x="0" y="0" width="25" height="25">
<path d="M0 0H24.6891V24.6891H0V0Z" fill="white"/>
</mask>
<g mask="url(#mask0_94_1466)">
<path fill-rule="evenodd" clip-rule="evenodd" d="M0 12.4135C0 18.5508 4.45741 23.6542 10.2871 24.6891V15.7732H7.20098V12.3445H10.2871V9.60096C10.2871 6.51483 12.2756 4.801 15.0881 4.801C15.979 4.801 16.9398 4.93782 17.8307 5.07463V8.22969H16.2536C14.7445 8.22969 14.402 8.98374 14.402 9.94455V12.3445H17.6938L17.1455 15.7732H14.402V24.6891C20.2317 23.6542 24.6891 18.5518 24.6891 12.4135C24.6891 5.5859 19.134 0 12.3445 0C5.55504 0 0 5.5859 0 12.4135Z" fill="#E4B717"/>
</g>
</svg>
