<svg width="46" height="46" viewBox="0 0 46 46" fill="none" xmlns="http://www.w3.org/2000/svg">
<circle cx="23" cy="23" r="22.5" fill="#179AE4" stroke="#179AE4"/>
<path fill-rule="evenodd" clip-rule="evenodd" d="M13.2357 23.1052C12.0878 19.5215 13.4293 15.4253 17.1917 14.2133C19.1708 13.5746 21.3552 13.9512 23.0005 15.1889C24.557 13.9854 26.8217 13.5789 28.7987 14.2133C32.561 15.4253 33.9111 19.5215 32.7643 23.1052C30.9778 28.7856 23.0005 33.161 23.0005 33.161C23.0005 33.161 15.0821 28.852 13.2357 23.1052Z" fill="white" stroke="white" stroke-width="1.5" stroke-linecap="round" stroke-linejoin="round"/>
<path fill-rule="evenodd" clip-rule="evenodd" d="M27.2793 17.8651C28.4239 18.2353 29.2327 19.2569 29.33 20.4561L27.2793 17.8651Z" fill="white"/>
<path d="M27.2793 17.8651C28.4239 18.2353 29.2327 19.2569 29.33 20.4561" stroke="white" stroke-width="1.5" stroke-linecap="round" stroke-linejoin="round"/>
</svg>
