<svg width="45" height="47" viewBox="0 0 45 47" fill="none" xmlns="http://www.w3.org/2000/svg">
<path d="M43.6243 23.349C43.6243 35.6835 33.9902 45.651 22.1442 45.651C10.2982 45.651 0.664062 35.6835 0.664062 23.349C0.664062 11.0145 10.2982 1.047 22.1442 1.047C33.9902 1.047 43.6243 11.0145 43.6243 23.349Z" stroke="#179AE4"/>
<path fill-rule="evenodd" clip-rule="evenodd" d="M12.8118 23.4533C11.7148 19.9004 12.9969 15.8395 16.5924 14.6379C18.4837 14.0048 20.5713 14.3781 22.1436 15.6051C23.6311 14.412 25.7954 14.009 27.6847 14.6379C31.2802 15.8395 32.5704 19.9004 31.4744 23.4533C29.7672 29.0848 22.1436 33.4225 22.1436 33.4225C22.1436 33.4225 14.5764 29.1506 12.8118 23.4533Z" stroke="#179AE4" stroke-width="1.5" stroke-linecap="round" stroke-linejoin="round"/>
<path d="M26.2324 18.2583C27.3263 18.6253 28.0992 19.6381 28.1922 20.827" stroke="#179AE4" stroke-width="1.5" stroke-linecap="round" stroke-linejoin="round"/>
</svg>
