<svg width="23" height="23" viewBox="0 0 23 23" fill="none" xmlns="http://www.w3.org/2000/svg">
<path d="M11.5 15.0625L15.0625 11.5M15.0625 11.5L11.5 7.9375M15.0625 11.5H2M7.9375 5.8577V5.80024C7.9375 4.47011 7.9375 3.80455 8.19636 3.29651C8.42405 2.84962 8.78712 2.48655 9.23401 2.25886C9.74202 2 10.4076 2 11.7377 2H17.2002C18.5304 2 19.1945 2 19.7025 2.25886C20.1494 2.48655 20.5137 2.84962 20.7414 3.29651C21 3.80405 21 4.4688 21 5.79633V17.2043C21 18.5318 21 19.1956 20.7414 19.7031C20.5137 20.15 20.1494 20.5137 19.7025 20.7414C19.195 21 18.5312 21 17.2037 21H11.7338C10.4063 21 9.74155 21 9.23401 20.7414C8.78712 20.5137 8.42405 20.1496 8.19636 19.7028C7.9375 19.1948 7.9375 18.5301 7.9375 17.2V17.1406" stroke="#8A8A8A" stroke-width="3" stroke-linecap="round" stroke-linejoin="round"/>
</svg>
