<svg width="124" height="21" viewBox="0 0 124 21" fill="none" xmlns="http://www.w3.org/2000/svg">
<path d="M5.148 20H0.16L3.437 0.656998H8.396L12.311 10.981L16.458 0.656998H21.475L24.375 20H19.358L17.937 8.864L13.268 20H11.267L6.801 8.864L5.148 20ZM48.0401 10.343C48.0401 13.2043 47.0251 15.6113 44.9951 17.564C42.9845 19.478 40.4421 20.435 37.3681 20.435C34.2941 20.435 31.7518 19.478 29.7411 17.564C27.7111 15.6113 26.6961 13.2043 26.6961 10.343C26.6961 9.009 26.9475 7.704 27.4501 6.428C27.9721 5.152 28.7358 4.04033 29.7411 3.093C31.7518 1.179 34.2941 0.221999 37.3681 0.221999C40.4421 0.221999 42.9845 1.179 44.9951 3.093C46.0005 4.04033 46.7545 5.152 47.2571 6.428C47.7791 7.704 48.0401 9.009 48.0401 10.343ZM37.3681 5.094C35.7828 5.094 34.4778 5.60633 33.4531 6.631C32.4285 7.63633 31.9161 8.90267 31.9161 10.43C31.9161 11.8413 32.4285 13.04 33.4531 14.026C34.5165 15.0507 35.8215 15.563 37.3681 15.563C38.9535 15.563 40.2488 15.0603 41.2541 14.055C42.2981 13.011 42.8201 11.7737 42.8201 10.343C42.8201 8.87367 42.2981 7.63633 41.2541 6.631C40.1715 5.60633 38.8761 5.094 37.3681 5.094ZM58.2599 20H51.2419V0.656998H57.8249C61.1116 0.656998 63.6732 1.54633 65.5099 3.325C67.3079 5.04567 68.2069 7.39467 68.2069 10.372C68.2069 13.156 67.3659 15.389 65.6839 17.071C64.8332 17.9217 63.7699 18.6273 62.4939 19.188C61.2179 19.7293 59.8066 20 58.2599 20ZM56.2589 4.92V15.737H57.2739C59.1492 15.737 60.5606 15.273 61.5079 14.345C62.4939 13.3977 62.9869 12.0733 62.9869 10.372C62.9869 8.49667 62.4842 7.08533 61.4789 6.138C60.6089 5.326 59.2749 4.92 57.4769 4.92H56.2589ZM82.397 0.656998V4.92H76.423V8.139H82.078V12.402H76.423V15.737H82.397V20H71.406V0.656998H82.397ZM85.5945 0.656998H93.4245C95.4738 0.656998 97.0495 1.22733 98.1515 2.368C99.2535 3.48933 99.8045 4.93933 99.8045 6.718C99.8045 8.41933 99.2921 9.763 98.2675 10.749C97.5521 11.4257 96.6628 11.8703 95.5995 12.083L101.66 20H95.4255L90.6115 12.576V20H85.5945V0.656998ZM90.6115 4.543V9.328H91.5685C92.6511 9.328 93.4631 9.067 94.0045 8.545C94.4298 8.11967 94.6425 7.57833 94.6425 6.921C94.6425 6.24433 94.4201 5.703 93.9755 5.297C93.4728 4.79433 92.6705 4.543 91.5685 4.543H90.6115ZM108.793 20H103.776V0.656998H108.793L118.044 12.489V0.656998H123.061V20H118.044L108.793 8.168V20Z" fill="#E4B717"/>
</svg>
