<svg width="33" height="55" viewBox="0 0 33 55" fill="none" xmlns="http://www.w3.org/2000/svg">
<path d="M31.1271 43.9047H2.19232" stroke="#8A8A8A" stroke-opacity="0.34" stroke-width="3" stroke-linecap="round" stroke-linejoin="round"/>
<path d="M16.6597 46.6869C16.3295 46.6869 16.0068 46.7848 15.7323 46.9682C15.4577 47.1516 15.2438 47.4124 15.1174 47.7174C14.9911 48.0224 14.958 48.3581 15.0224 48.6819C15.0868 49.0057 15.2458 49.3031 15.4793 49.5366C15.7127 49.77 16.0102 49.929 16.334 49.9934C16.6578 50.0579 16.9935 50.0248 17.2985 49.8985C17.6035 49.7721 17.8642 49.5581 18.0477 49.2836C18.2311 49.0091 18.329 48.6864 18.329 48.3562C18.3293 48.1369 18.2863 47.9197 18.2025 47.717C18.1187 47.5144 17.9958 47.3302 17.8407 47.1752C17.6856 47.0201 17.5015 46.8971 17.2988 46.8134C17.0962 46.7296 16.879 46.6866 16.6597 46.6869Z" fill="#8A8A8A" fill-opacity="0.34"/>
<path d="M26.6756 1.61536H6.64383C4.18533 1.61536 2.19232 3.60836 2.19232 6.06686V48.3562C2.19232 50.8147 4.18533 52.8077 6.64383 52.8077H26.6756C29.1341 52.8077 31.1271 50.8147 31.1271 48.3562V6.06686C31.1271 3.60836 29.1341 1.61536 26.6756 1.61536Z" stroke="#8A8A8A" stroke-opacity="0.34" stroke-width="3" stroke-linecap="round" stroke-linejoin="round"/>
</svg>
