<svg width="79" height="79" viewBox="0 0 79 79" fill="none" xmlns="http://www.w3.org/2000/svg">
<path d="M34.1675 54.3125L53.4237 41.9687C54.3454 41.3762 54.8062 40.5533 54.8062 39.5C54.8062 38.4467 54.3454 37.6237 53.4237 37.0312L34.1675 24.6875C33.18 24.0292 32.1754 23.9791 31.1536 24.5374C30.1319 25.0957 29.6224 25.9686 29.625 27.1562V51.8437C29.625 53.0287 30.1359 53.9017 31.1576 54.4626C32.1793 55.0235 33.1826 54.9735 34.1675 54.3125ZM39.5 79C34.0358 79 28.9008 77.9625 24.095 75.8874C19.2892 73.8123 15.1087 70.9986 11.5537 67.4462C7.99875 63.8912 5.18503 59.7108 3.1126 54.905C1.04017 50.0992 0.00263333 44.9642 0 39.5C0 34.0358 1.03753 28.9008 3.1126 24.095C5.18767 19.2892 8.00138 15.1087 11.5537 11.5537C15.1087 7.99875 19.2892 5.18503 24.095 3.1126C28.9008 1.04017 34.0358 0.00263333 39.5 0C44.9642 0 50.0992 1.03753 54.905 3.1126C59.7108 5.18767 63.8912 8.00138 67.4462 11.5537C71.0012 15.1087 73.8163 19.2892 75.8913 24.095C77.9664 28.9008 79.0026 34.0358 79 39.5C79 44.9642 77.9625 50.0992 75.8874 54.905C73.8123 59.7108 70.9986 63.8912 67.4462 67.4462C63.8912 71.0012 59.7108 73.8163 54.905 75.8913C50.0992 77.9664 44.9642 79.0026 39.5 79Z" fill="white"/>
</svg>
