<svg width="43" height="43" viewBox="0 0 43 43" fill="none" xmlns="http://www.w3.org/2000/svg">
<circle cx="21.5" cy="21.5" r="21" stroke="#D9D9D9"/>
<path d="M12.6667 18.6667H31.3333M12.6667 25.3333H31.3333M12 22C12 23.3132 12.2587 24.6136 12.7612 25.8268C13.2638 27.0401 14.0003 28.1425 14.9289 29.0711C15.8575 29.9997 16.9599 30.7363 18.1732 31.2388C19.3864 31.7413 20.6868 32 22 32C23.3132 32 24.6136 31.7413 25.8268 31.2388C27.0401 30.7363 28.1425 29.9997 29.0711 29.0711C29.9997 28.1425 30.7363 27.0401 31.2388 25.8268C31.7413 24.6136 32 23.3132 32 22C32 19.3478 30.9464 16.8043 29.0711 14.9289C27.1957 13.0536 24.6522 12 22 12C19.3478 12 16.8043 13.0536 14.9289 14.9289C13.0536 16.8043 12 19.3478 12 22Z" stroke="#363636" stroke-width="1.5" stroke-linecap="round" stroke-linejoin="round"/>
<path d="M21.4443 12C19.5725 14.9996 18.5801 18.4643 18.5801 22C18.5801 25.5357 19.5725 29.0004 21.4443 32M22.5554 12C24.4273 14.9996 25.4196 18.4643 25.4196 22C25.4196 25.5357 24.4273 29.0004 22.5554 32" stroke="#363636" stroke-width="1.5" stroke-linecap="round" stroke-linejoin="round"/>
</svg>
